<svg width="24" height="24" viewBox="0 0 24 24" fill="none" xmlns="http://www.w3.org/2000/svg">
<g id="Icons" clip-path="url(#clip0_147_427)">
<path id="Vector" d="M15.75 1.16415e-10C15.9531 1.16415e-10 16.1289 0.0742188 16.2773 0.222656L23.7773 7.72266C23.9258 7.87109 24 8.04688 24 8.25C24 8.45312 23.9258 8.62891 23.7773 8.77734L20.9297 11.625C21.125 11.8203 21.3164 12.0078 21.5039 12.1875C21.6914 12.3672 21.8555 12.5508 21.9961 12.7383C22.1367 12.9258 22.2539 13.1367 22.3477 13.3711C22.4414 13.6055 22.4883 13.8672 22.4883 14.1562C22.4883 14.4688 22.4297 14.7656 22.3125 15.0469C22.1953 15.3281 22.0352 15.5742 21.832 15.7852C21.6289 15.9961 21.3906 16.1641 21.1172 16.2891C20.8438 16.4141 20.5508 16.4805 20.2383 16.4883C20.2227 16.8086 20.1562 17.1016 20.0391 17.3672C19.9219 17.6328 19.7656 17.8672 19.5703 18.0703C19.375 18.2734 19.1406 18.4336 18.8672 18.5508C18.5938 18.668 18.3008 18.7305 17.9883 18.7383C17.9805 19.0508 17.9141 19.3438 17.7891 19.6172C17.6641 19.8906 17.4961 20.1289 17.2852 20.332C17.0742 20.5352 16.8281 20.6992 16.5469 20.8242C16.2656 20.9492 15.9688 21.0078 15.6562 21C15.4062 21 15.1523 20.957 14.8945 20.8711C14.8086 21.1133 14.6953 21.332 14.5547 21.5273C14.4141 21.7227 14.2422 21.8945 14.0391 22.043C13.8359 22.1914 13.6211 22.3047 13.3945 22.3828C13.168 22.4609 12.9219 22.5 12.6562 22.5C12.4531 22.5 12.2734 22.4844 12.1172 22.4531C11.9609 22.4219 11.8164 22.3672 11.6836 22.2891C11.5508 22.2109 11.418 22.125 11.2852 22.0312C11.1523 21.9375 11.0156 21.8242 10.875 21.6914C10.6016 21.9414 10.3359 22.1367 10.0781 22.2773C9.82031 22.418 9.49219 22.4922 9.09375 22.5C8.78125 22.5 8.48438 22.4414 8.20312 22.3242C7.92188 22.207 7.67578 22.0469 7.46484 21.8438C7.25391 21.6406 7.08594 21.4023 6.96094 21.1289C6.83594 20.8555 6.76953 20.5586 6.76172 20.2383C6.45703 20.2305 6.16797 20.168 5.89453 20.0508C5.62109 19.9336 5.38281 19.7734 5.17969 19.5703C4.97656 19.3672 4.81641 19.1289 4.69922 18.8555C4.58203 18.582 4.51953 18.293 4.51172 17.9883C4.19922 17.9805 3.91016 17.918 3.64453 17.8008C3.37891 17.6836 3.14453 17.5234 2.94141 17.3203C2.73828 17.1172 2.57812 16.8789 2.46094 16.6055C2.34375 16.332 2.27734 16.043 2.26172 15.7383C1.94141 15.7305 1.64453 15.6641 1.37109 15.5391C1.09766 15.4141 0.859375 15.2461 0.65625 15.0352C0.453125 14.8242 0.292969 14.582 0.175781 14.3086C0.0585938 14.0352 0 13.7383 0 13.418C0 13.0977 0.0585938 12.7969 0.175781 12.5156C0.292969 12.2344 0.464844 11.9805 0.691406 11.7539L1.93359 10.5L0.222656 8.77734C0.0742188 8.62891 0 8.45312 0 8.25C0 8.04688 0.0742188 7.87109 0.222656 7.72266L7.72266 0.222656C7.87109 0.0742188 8.04688 1.16415e-10 8.25 1.16415e-10C8.45312 1.16415e-10 8.62891 0.0742188 8.77734 0.222656L10.3242 1.76953C10.4258 1.73828 10.6211 1.67188 10.9102 1.57031C11.1992 1.46875 11.5391 1.35547 11.9297 1.23047C12.3203 1.10547 12.7227 0.96875 13.1367 0.820312C13.5508 0.671875 13.9492 0.539062 14.332 0.421875C14.7148 0.304688 15.0312 0.203125 15.2812 0.117188C15.5312 0.03125 15.6875 -0.0078125 15.75 1.16415e-10ZM3.65625 11.25C3.42969 11.25 3.23438 11.332 3.07031 11.4961L1.74609 12.8086C1.58203 12.9727 1.5 13.1719 1.5 13.4062C1.5 13.6406 1.57812 13.8359 1.73438 13.9922C1.89062 14.1484 2.08984 14.2305 2.33203 14.2383C2.57422 14.2383 2.77344 14.1602 2.92969 14.0039L4.25391 12.6914C4.41797 12.5273 4.5 12.3281 4.5 12.0938C4.5 11.8594 4.41797 11.6602 4.25391 11.4961C4.08984 11.332 3.89062 11.25 3.65625 11.25ZM5.90625 13.5C5.79688 13.5 5.69141 13.5195 5.58984 13.5586C5.48828 13.5977 5.39453 13.6602 5.30859 13.7461L3.99609 15.0703C3.83203 15.2344 3.75 15.4336 3.75 15.668C3.75 15.8945 3.83203 16.0859 3.99609 16.2422C4.16016 16.3984 4.35938 16.4805 4.59375 16.4883C4.70312 16.4883 4.80859 16.4688 4.91016 16.4297C5.01172 16.3906 5.10547 16.332 5.19141 16.2539L6.50391 14.9297C6.66797 14.7656 6.75 14.5703 6.75 14.3438C6.75 14.1094 6.66797 13.9102 6.50391 13.7461C6.33984 13.582 6.14062 13.5 5.90625 13.5ZM8.15625 15.75C7.92969 15.75 7.73438 15.832 7.57031 15.9961L6.24609 17.3086C6.08203 17.4727 6 17.6719 6 17.9062C6 18.1406 6.07812 18.3359 6.23438 18.4922C6.39062 18.6484 6.58984 18.7305 6.83203 18.7383C7.07422 18.7383 7.27344 18.6602 7.42969 18.5039L8.75391 17.1914C8.91797 17.0273 9 16.8281 9 16.5938C9 16.3594 8.91797 16.1602 8.75391 15.9961C8.58984 15.832 8.39062 15.75 8.15625 15.75ZM8.25 20.168C8.25 20.3945 8.33203 20.5859 8.49609 20.7422C8.66016 20.8984 8.85938 20.9805 9.09375 20.9883C9.20312 20.9883 9.30859 20.9688 9.41016 20.9297C9.51172 20.8906 9.60547 20.832 9.69141 20.7539L11.0039 19.4297C11.168 19.2656 11.25 19.0703 11.25 18.8438C11.25 18.6094 11.168 18.4102 11.0039 18.2461C10.8398 18.082 10.6406 18 10.4062 18C10.2969 18 10.1914 18.0195 10.0898 18.0586C9.98828 18.0977 9.89453 18.1602 9.80859 18.2461L8.49609 19.5703C8.33203 19.7344 8.25 19.9336 8.25 20.168ZM20.1562 15C20.3828 15 20.5781 14.918 20.7422 14.7539C20.9062 14.5898 20.9922 14.3945 21 14.168C21 13.9336 20.918 13.7344 20.7539 13.5703L13.3477 6.15234C13.3242 6.12891 13.2852 6.10938 13.2305 6.09375C13.1758 6.07812 13.1211 6.0625 13.0664 6.04688C13.0117 6.03125 12.9531 6.01953 12.8906 6.01172C12.8281 6.00391 12.7812 6 12.75 6C12.5469 6 12.3555 6.03906 12.1758 6.11719C11.9961 6.19531 11.8359 6.30078 11.6953 6.43359C11.5547 6.56641 11.4453 6.72656 11.3672 6.91406C11.2891 7.10156 11.25 7.29687 11.25 7.5C11.25 7.91406 11.1719 8.30078 11.0156 8.66016C10.8594 9.01953 10.6445 9.33984 10.3711 9.62109C10.0977 9.90234 9.78125 10.1172 9.42188 10.2656C9.0625 10.4141 8.67188 10.4922 8.25 10.5C7.9375 10.5 7.64453 10.4414 7.37109 10.3242C7.09766 10.207 6.85938 10.0469 6.65625 9.84375C6.45312 9.64062 6.29297 9.40234 6.17578 9.12891C6.05859 8.85547 6 8.5625 6 8.25C6 8.0625 6.01953 7.85547 6.05859 7.62891C6.09766 7.40234 6.16016 7.19922 6.24609 7.01953L8.4375 2.625C8.50781 2.5 8.61328 2.39844 8.75391 2.32031L8.25 1.81641L1.80469 8.25L3.38672 9.82031C3.73828 9.78125 4.07031 9.80469 4.38281 9.89062C4.69531 9.97656 4.96875 10.1211 5.20312 10.3242C5.4375 10.5273 5.625 10.7734 5.76562 11.0625C5.90625 11.3516 5.98047 11.6758 5.98828 12.0352C6.30078 12.0508 6.59375 12.1133 6.86719 12.2227C7.14062 12.332 7.375 12.4883 7.57031 12.6914C7.76562 12.8945 7.92578 13.1289 8.05078 13.3945C8.17578 13.6602 8.23828 13.957 8.23828 14.2852C8.55078 14.3008 8.84375 14.3633 9.11719 14.4727C9.39062 14.582 9.625 14.7383 9.82031 14.9414C10.0156 15.1445 10.1758 15.3789 10.3008 15.6445C10.4258 15.9102 10.4883 16.207 10.4883 16.5352C10.8086 16.5508 11.1055 16.6172 11.3789 16.7344C11.6523 16.8516 11.8906 17.0117 12.0938 17.2148C12.2969 17.418 12.457 17.6602 12.5742 17.9414C12.6914 18.2227 12.75 18.5234 12.75 18.8438C12.75 19.1953 12.6797 19.5234 12.5391 19.8281C12.3984 20.1328 12.1953 20.3984 11.9297 20.625C12.0469 20.7344 12.1523 20.8242 12.2461 20.8945C12.3398 20.9648 12.4766 21 12.6562 21C12.8828 21 13.0781 20.918 13.2422 20.7539C13.4062 20.5898 13.4922 20.3945 13.5 20.168C13.5 19.9336 13.418 19.7344 13.2539 19.5703L14.3086 18.5039L15.0703 19.2539C15.25 19.418 15.4453 19.5 15.6562 19.5C15.8828 19.5 16.0781 19.418 16.2422 19.2539C16.4062 19.0898 16.4922 18.8945 16.5 18.668C16.5 18.4336 16.418 18.2344 16.2539 18.0703L14.9297 16.7461L15.9961 15.6914L17.3086 17.0039C17.4727 17.168 17.6719 17.25 17.9062 17.25C18.1406 17.25 18.3398 17.168 18.5039 17.0039C18.668 16.8398 18.75 16.6406 18.75 16.4062C18.75 16.1719 18.668 15.9727 18.5039 15.8086L17.1797 14.4961L18.2461 13.4297L19.5703 14.7539C19.7344 14.918 19.9297 15 20.1562 15ZM22.1836 8.25L15.5508 1.60547L9.64453 3.57422L7.60547 7.65234C7.56641 7.72266 7.53906 7.82031 7.52344 7.94531C7.50781 8.07031 7.5 8.17188 7.5 8.25C7.5 8.45312 7.57422 8.62891 7.72266 8.77734C7.87109 8.92578 8.04688 9 8.25 9C8.46094 9 8.65625 8.96094 8.83594 8.88281C9.01562 8.80469 9.17188 8.69922 9.30469 8.56641C9.4375 8.43359 9.54688 8.27344 9.63281 8.08594C9.71875 7.89844 9.75781 7.70312 9.75 7.5C9.75 7.08594 9.82812 6.69922 9.98438 6.33984C10.1406 5.98047 10.3555 5.66016 10.6289 5.37891C10.9023 5.09766 11.2188 4.88281 11.5781 4.73438C11.9375 4.58594 12.3281 4.50781 12.75 4.5C12.875 4.5 13.0078 4.51172 13.1484 4.53516C13.2891 4.55859 13.4375 4.58984 13.5938 4.62891C13.75 4.66797 13.8867 4.72266 14.0039 4.79297C14.1211 4.86328 14.2344 4.94531 14.3438 5.03906L19.875 10.5703L22.1836 8.25Z" fill="#F45353"/>
</g>
<defs>
<clipPath id="clip0_147_427">
<rect width="24" height="24" fill="white"/>
</clipPath>
</defs>
</svg>
