<svg width="24" height="24" viewBox="0 0 24 24" fill="none" xmlns="http://www.w3.org/2000/svg">
<g id="Icons">
<path id="Vector" d="M15.4286 0.857117V11.1428L21.5829 18.9771C21.8827 19.3565 22.0694 19.8127 22.1217 20.2934C22.174 20.774 22.0897 21.2597 21.8785 21.6947C21.6673 22.1296 21.3377 22.4962 20.9276 22.7523C20.5175 23.0085 20.0435 23.1438 19.56 23.1428H4.44003C3.95651 23.1438 3.48252 23.0085 3.07243 22.7523C2.66235 22.4962 2.33279 22.1296 2.12158 21.6947C1.91038 21.2597 1.82608 20.774 1.87836 20.2934C1.93064 19.8127 2.11739 19.3565 2.41717 18.9771L8.57145 11.1428V0.857117M6.00003 0.857117H18" stroke="#F45353" stroke-linecap="round" stroke-linejoin="round"/>
</g>
</svg>
